<svg width="24" height="24" viewBox="0 0 24 24" fill="none" xmlns="http://www.w3.org/2000/svg">
<path d="M12.3018 4.48291C12.0393 4.43071 11.7685 4.44739 11.5156 4.53076L11.4082 4.5708C11.1611 4.67317 10.9452 4.83763 10.7812 5.04736L10.7139 5.14014C10.544 5.3944 10.4532 5.69372 10.4531 5.99951C10.4531 6.35846 10.5782 6.70473 10.8037 6.97998L10.9062 7.09424C11.1963 7.38417 11.5899 7.54639 12 7.54639C12.3059 7.54639 12.605 7.45562 12.8594 7.28564C13.0819 7.13688 13.262 6.93376 13.3818 6.6958L13.4287 6.59229C13.5312 6.34493 13.5677 6.07549 13.5352 5.81104L13.5176 5.69775C13.4653 5.43531 13.3458 5.19146 13.1719 4.98975L13.0938 4.90576C12.9045 4.71658 12.6697 4.58039 12.4131 4.50928L12.3018 4.48291ZM11.2969 8.86963L11.2617 8.86084C10.6527 8.7036 10.1127 8.35636 9.7168 7.87354L9.55566 7.65869C9.15237 7.06386 8.97977 6.34233 9.07031 5.62939C9.14955 5.00556 9.42553 4.42568 9.85449 3.97217L10.0479 3.78564C10.5872 3.3105 11.2812 3.04834 12 3.04834C12.629 3.04834 13.2391 3.24909 13.7432 3.61768L13.9521 3.78564C14.424 4.20137 14.7492 4.75515 14.8838 5.36475L14.9297 5.62939C15.0089 6.25324 14.8869 6.88382 14.585 7.43018L14.4443 7.65869C14.0409 8.25358 13.4342 8.68115 12.7383 8.86084L12.7031 8.86963V19.5171L12.7539 19.5122C14.6847 19.3333 16.493 18.4848 17.8643 17.1138C19.2354 15.7427 20.0835 13.9351 20.2627 12.0044L20.2676 11.9526H18.75C18.6102 11.9526 18.475 11.9109 18.3604 11.8345L18.2529 11.7476C18.1211 11.6157 18.0469 11.436 18.0469 11.2495C18.047 11.1098 18.0887 10.9744 18.165 10.8599L18.2529 10.7524C18.3848 10.6207 18.5636 10.5464 18.75 10.5464H21C21.1864 10.5464 21.3652 10.6207 21.4971 10.7524C21.6288 10.8842 21.703 11.0632 21.7031 11.2495C21.7031 13.6619 20.8049 15.9823 19.1934 17.7622L18.8613 18.1108C17.0416 19.9305 14.5734 20.9526 12 20.9526C9.58735 20.9526 7.26727 20.0546 5.4873 18.4429L5.13867 18.1108C3.31912 16.2912 2.29688 13.8228 2.29688 11.2495C2.29696 11.1098 2.33865 10.9744 2.41504 10.8599L2.50293 10.7524C2.63477 10.6207 2.81362 10.5464 3 10.5464H5.25C5.43638 10.5464 5.61523 10.6207 5.74707 10.7524C5.87883 10.8842 5.95301 11.0632 5.95312 11.2495C5.95312 11.436 5.87893 11.6157 5.74707 11.7476C5.61523 11.8793 5.43635 11.9526 5.25 11.9526H3.73242L3.7373 12.0044C3.90527 13.8143 4.66125 15.5158 5.88477 16.8511L6.13574 17.1138C7.50698 18.4848 9.31527 19.3333 11.2461 19.5122L11.2969 19.5171V8.86963Z" fill="#4A525F" stroke="#4A525F" stroke-width="0.09375"/>
</svg>
