<svg width="24" height="24" viewBox="0 0 24 24" fill="none" xmlns="http://www.w3.org/2000/svg">
<path d="M5.25 12.7969H9.75C10.1354 12.7969 10.5048 12.9501 10.7773 13.2227C11.0499 13.4952 11.2031 13.8646 11.2031 14.25V18.75C11.2031 19.0872 11.0859 19.4123 10.874 19.6709L10.7773 19.7773C10.5048 20.0499 10.1354 20.2031 9.75 20.2031H5.25C4.91279 20.2031 4.58768 20.0859 4.3291 19.874L4.22266 19.7773C3.95014 19.5048 3.79688 19.1354 3.79688 18.75V14.25C3.79688 13.9128 3.91411 13.5877 4.12598 13.3291L4.22266 13.2227C4.49517 12.9501 4.86461 12.7969 5.25 12.7969ZM14.25 12.7969H18.75C19.0872 12.7969 19.4123 12.9141 19.6709 13.126L19.7773 13.2227C20.0499 13.4952 20.2031 13.8646 20.2031 14.25V18.75C20.2031 19.0872 20.0859 19.4123 19.874 19.6709L19.7773 19.7773C19.5048 20.0499 19.1354 20.2031 18.75 20.2031H14.25C13.9128 20.2031 13.5877 20.0859 13.3291 19.874L13.2227 19.7773C12.9501 19.5048 12.7969 19.1354 12.7969 18.75V14.25C12.7969 13.8646 12.9501 13.4952 13.2227 13.2227C13.4952 12.9501 13.8646 12.7969 14.25 12.7969ZM5.20312 18.7969H9.79688V14.2031H5.20312V18.7969ZM14.2031 18.7969H18.7969V14.2031H14.2031V18.7969ZM5.25 3.79688H9.75C10.0872 3.79688 10.4123 3.91411 10.6709 4.12598L10.7773 4.22266C11.0499 4.49517 11.2031 4.86461 11.2031 5.25V9.75C11.2031 10.1354 11.0499 10.5048 10.7773 10.7773C10.5048 11.0499 10.1354 11.2031 9.75 11.2031H5.25C4.91279 11.2031 4.58768 11.0859 4.3291 10.874L4.22266 10.7773C3.95014 10.5048 3.79688 10.1354 3.79688 9.75V5.25L3.80371 5.10645C3.83201 4.82128 3.94436 4.55076 4.12598 4.3291L4.22266 4.22266C4.49517 3.95014 4.86461 3.79688 5.25 3.79688ZM14.25 3.79688H18.75C19.0872 3.79688 19.4123 3.91411 19.6709 4.12598L19.7773 4.22266C20.0499 4.49517 20.2031 4.86461 20.2031 5.25V9.75C20.2031 10.0872 20.0859 10.4123 19.874 10.6709L19.7773 10.7773C19.5048 11.0499 19.1354 11.2031 18.75 11.2031H14.25C13.8646 11.2031 13.4952 11.0499 13.2227 10.7773C12.9501 10.5048 12.7969 10.1354 12.7969 9.75V5.25C12.7969 4.91279 12.9141 4.58768 13.126 4.3291L13.2227 4.22266C13.4952 3.95014 13.8646 3.79688 14.25 3.79688ZM5.20312 9.79688H9.79688V5.20312H5.20312V9.79688ZM14.2031 9.79688H18.7969V5.20312H14.2031V9.79688Z" fill="#4A525F" stroke="#4A525F" stroke-width="0.09375"/>
</svg>
