<svg width="24" height="24" viewBox="0 0 24 24" fill="none" xmlns="http://www.w3.org/2000/svg">
<path d="M6 6.79688H9.75C9.88974 6.79688 10.025 6.8387 10.1396 6.91504L10.2471 7.00293C10.3789 7.13479 10.4531 7.31352 10.4531 7.5C10.4531 7.63974 10.4113 7.77504 10.335 7.88965L10.2471 7.99707C10.1152 8.12893 9.93648 8.20312 9.75 8.20312H6C4.99301 8.20312 4.02748 8.60338 3.31543 9.31543C2.60338 10.0275 2.20312 10.993 2.20312 12C2.20312 13.007 2.60338 13.9725 3.31543 14.6846C4.02748 15.3966 4.99301 15.7969 6 15.7969H9.75C9.88974 15.7969 10.025 15.8387 10.1396 15.915L10.2471 16.0029C10.3789 16.1348 10.4531 16.3135 10.4531 16.5C10.4531 16.6397 10.4113 16.775 10.335 16.8896L10.2471 16.9971C10.1152 17.1289 9.93648 17.2031 9.75 17.2031H6C4.70637 17.2031 3.46225 16.7216 2.50781 15.8574L2.32129 15.6787C1.34551 14.7029 0.796875 13.38 0.796875 12C0.796875 10.7064 1.27844 9.46225 2.14258 8.50781L2.32129 8.32129C3.29706 7.34551 4.62005 6.79688 6 6.79688ZM14.25 6.79688H18C19.38 6.79688 20.7029 7.34551 21.6787 8.32129C22.6545 9.29706 23.2031 10.62 23.2031 12C23.2031 13.2936 22.7216 14.5377 21.8574 15.4922L21.6787 15.6787C20.7029 16.6545 19.38 17.2031 18 17.2031H14.25C14.0635 17.2031 13.8848 17.1289 13.7529 16.9971C13.6211 16.8652 13.5469 16.6865 13.5469 16.5C13.5469 16.3135 13.6211 16.1348 13.7529 16.0029C13.8848 15.8711 14.0635 15.7969 14.25 15.7969H18C18.9442 15.7969 19.8523 15.4453 20.5488 14.8145L20.6846 14.6846C21.3966 13.9725 21.7969 13.007 21.7969 12C21.7969 11.0558 21.4453 10.1477 20.8145 9.45117L20.6846 9.31543C19.9725 8.60338 19.007 8.20312 18 8.20312H14.25C14.0635 8.20312 13.8848 8.12893 13.7529 7.99707C13.6211 7.86521 13.5469 7.68648 13.5469 7.5C13.5469 7.36026 13.5887 7.22496 13.665 7.11035L13.7529 7.00293C13.8848 6.87107 14.0635 6.79688 14.25 6.79688ZM7.5 11.2969H16.5C16.6397 11.2969 16.775 11.3387 16.8896 11.415L16.9971 11.5029C17.1289 11.6348 17.2031 11.8135 17.2031 12C17.2031 12.1865 17.1289 12.3652 16.9971 12.4971C16.8652 12.6289 16.6865 12.7031 16.5 12.7031H7.5C7.36026 12.7031 7.22496 12.6613 7.11035 12.585L7.00293 12.4971C6.87107 12.3652 6.79688 12.1865 6.79688 12C6.79688 11.8603 6.8387 11.725 6.91504 11.6104L7.00293 11.5029C7.13479 11.3711 7.31352 11.2969 7.5 11.2969Z" fill="#4A525F" stroke="#4A525F" stroke-width="0.09375"/>
</svg>
