<svg width="120" height="24" viewBox="0 0 120 24" fill="none" xmlns="http://www.w3.org/2000/svg">
<path d="M37.2039 20.0671C36.4872 20.0671 36.1289 19.7016 36.1289 18.9704V6.43098C36.1289 5.69986 36.4941 5.3343 37.2246 5.3343H42.1658C43.737 5.3343 44.9499 5.71365 45.8044 6.47237C46.659 7.21728 47.0863 8.26569 47.0863 9.61757C47.0863 10.7074 46.7968 11.604 46.2179 12.3076C45.6391 12.9973 44.819 13.4594 43.7577 13.6939C44.4193 13.9146 44.9775 14.4457 45.4323 15.2872L47.2103 18.598C47.417 18.9704 47.4584 19.3084 47.3344 19.6119C47.2103 19.9154 46.9278 20.0671 46.4867 20.0671C46.1835 20.0671 45.9354 20.005 45.7424 19.8809C45.5495 19.7567 45.3841 19.5567 45.2462 19.2808L43.0754 15.2665C42.786 14.7285 42.4483 14.3699 42.0624 14.1905C41.6903 13.9974 41.2078 13.9009 40.6152 13.9009H38.279V18.9704C38.279 19.7016 37.9206 20.0671 37.2039 20.0671ZM38.279 12.2869H41.8143C43.9369 12.2869 44.9981 11.4109 44.9981 9.65896C44.9981 7.92082 43.9369 7.05175 41.8143 7.05175H38.279V12.2869Z" fill="#100218"/>
<path d="M56.8395 20.1085C54.8962 20.1085 53.4076 19.5981 52.3739 18.5773C51.354 17.5427 50.844 16.0321 50.844 14.0457V6.26544C50.844 5.54812 51.2023 5.18945 51.919 5.18945C52.6358 5.18945 52.9941 5.54812 52.9941 6.26544V14.0043C52.9941 16.8322 54.2759 18.2462 56.8395 18.2462C59.4032 18.2462 60.685 16.8322 60.685 14.0043V6.26544C60.685 5.54812 61.0364 5.18945 61.7394 5.18945C62.4423 5.18945 62.7938 5.54812 62.7938 6.26544V14.0457C62.7938 16.0321 62.2907 17.5427 61.2845 18.5773C60.2784 19.5981 58.7967 20.1085 56.8395 20.1085Z" fill="#100218"/>
<path d="M71.5679 20.0671C70.8512 20.0671 70.4929 19.7016 70.4929 18.9704V7.13452H66.1099C65.4897 7.13452 65.1795 6.83103 65.1795 6.22406C65.1795 5.63089 65.4897 5.3343 66.1099 5.3343H77.0053C77.6393 5.3343 77.9563 5.63089 77.9563 6.22406C77.9563 6.83103 77.6393 7.13452 77.0053 7.13452H72.6223V18.9704C72.6223 19.7016 72.2708 20.0671 71.5679 20.0671Z" fill="#100218"/>
<path d="M86.2437 20.0671C85.527 20.0671 85.1687 19.7016 85.1687 18.9704V7.13452H80.7857C80.1655 7.13452 79.8554 6.83103 79.8554 6.22406C79.8554 5.63089 80.1655 5.3343 80.7857 5.3343H91.6811C92.3151 5.3343 92.6321 5.63089 92.6321 6.22406C92.6321 6.83103 92.3151 7.13452 91.6811 7.13452H87.2981V18.9704C87.2981 19.7016 86.9467 20.0671 86.2437 20.0671Z" fill="#100218"/>
<path d="M96.5588 19.9223C95.787 19.9223 95.4011 19.536 95.4011 18.7635V6.49306C95.4011 5.72055 95.787 5.3343 96.5588 5.3343H104.105C104.698 5.3343 104.994 5.61709 104.994 6.18268C104.994 6.77585 104.698 7.07244 104.105 7.07244H97.4685V11.6454H103.65C104.243 11.6454 104.539 11.9351 104.539 12.5145C104.539 13.0939 104.243 13.3835 103.65 13.3835H97.4685V18.1841H104.105C104.698 18.1841 104.994 18.4738 104.994 19.0532C104.994 19.6326 104.698 19.9223 104.105 19.9223H96.5588Z" fill="#100218"/>
<path d="M109.8 20.0671C109.083 20.0671 108.725 19.7016 108.725 18.9704V6.43098C108.725 5.69986 109.09 5.3343 109.821 5.3343H114.762C116.333 5.3343 117.546 5.71365 118.401 6.47237C119.255 7.21728 119.682 8.26569 119.682 9.61757C119.682 10.7074 119.393 11.604 118.814 12.3076C118.235 12.9973 117.415 13.4594 116.354 13.6939C117.015 13.9146 117.574 14.4457 118.029 15.2872L119.807 18.598C120.013 18.9704 120.055 19.3084 119.931 19.6119C119.807 19.9154 119.524 20.0671 119.083 20.0671C118.78 20.0671 118.532 20.005 118.339 19.8809C118.146 19.7567 117.98 19.5567 117.842 19.2808L115.672 15.2665C115.382 14.7285 115.045 14.3699 114.659 14.1905C114.286 13.9974 113.804 13.9009 113.211 13.9009H110.875V18.9704C110.875 19.7016 110.517 20.0671 109.8 20.0671ZM110.875 12.2869H114.41C116.533 12.2869 117.594 11.4109 117.594 9.65896C117.594 7.92082 116.533 7.05175 114.41 7.05175H110.875V12.2869Z" fill="#100218"/>
<path fill-rule="evenodd" clip-rule="evenodd" d="M7.41887 1.29731C7.41887 0.580825 7.99657 0 8.7092 0H17.2137C20.8902 0 23.8706 2.99653 23.8706 6.69293V15.2434C23.8706 15.9599 23.2929 16.5407 22.5803 16.5407H19.2093V13.9461H21.2899V6.69293C21.2899 4.42949 19.4649 2.59462 17.2137 2.59462H9.99953V15.2434C9.99953 15.9599 9.42183 16.5407 8.7092 16.5407C7.99657 16.5407 7.41887 15.9599 7.41887 15.2434V1.29731Z" fill="#100218"/>
<path fill-rule="evenodd" clip-rule="evenodd" d="M16.4521 22.7027C16.4521 23.4192 15.8744 24 15.1617 24H6.65727C2.98074 24 0.000335372 21.0035 0.000335693 17.3071L0.000336437 8.75663C0.000336499 8.04014 0.578037 7.45932 1.29067 7.45932H4.66165V10.0539H2.581L2.581 17.3071C2.581 19.5705 4.406 21.4054 6.65727 21.4054L13.8714 21.4054L13.8714 8.75663C13.8714 8.04014 14.4491 7.45932 15.1617 7.45932C15.8744 7.45932 16.4521 8.04014 16.4521 8.75663V22.7027Z" fill="#100218"/>
</svg>
